<?xml version="1.0" encoding="UTF-8" standalone="no"?>
<svg
   width="789.49982"
   height="198.13698"
   viewBox="0 0 789.49982 198.13698"
   fill="none"
   version="1.1"
   id="svg34"
   xmlns="http://www.w3.org/2000/svg"
   xmlns:svg="http://www.w3.org/2000/svg">
  <defs
     id="defs38" />
  <path
     fill-rule="evenodd"
     clip-rule="evenodd"
     d="m 687.845,65.444502 c 5.24,2.609 10.915,3.782 17.02,3.5195 6.105,-0.2625 11.625,-1.917 16.555,-4.964 4.935,-3.046 8.775,-7.155 11.515,-12.3255 2.74,-5.2318 3.975,-11.01515 3.7,-17.3497 -0.275,-6.3347 -2,-11.9599 -5.18,-16.87575 -3.115,-4.91845 -7.295,-8.6821504 -12.535,-11.2910504 -5.18,-2.61156 -10.82,-3.78606 -16.925,-3.52345 -6.105,0.26257 -11.655,1.91849 -16.65,4.9677 -4.935,3.0466504 -8.805,7.1564504 -11.605,12.3295504 -2.745,5.1705 -3.975,10.92305 -3.705,17.25785 0.275,6.3344 2.005,11.99065 5.185,16.96785 3.24,4.913 7.45,8.6755 12.625,11.287 z m 28.57,-16.5711 c -2.935,3.5766 -6.995,5.4766 -12.175,5.6991 -5.24,0.2255 -9.505,-1.2855 -12.795,-4.5325 -3.235,-3.31145 -4.975,-7.82715 -5.22,-13.54695 -0.25,-5.781 1.09,-10.42915 4.03,-13.9444 3,-3.51785 7.12,-5.3895 12.36,-5.615 5.18,-0.2228 9.385,1.32155 12.615,4.633 3.295,3.2473 5.065,7.7308 5.31,13.45045 0.245,5.65815 -1.13,10.2769 -4.125,13.8563 z"
     fill="#f35555"
     id="path2"
     style="display:inline;stroke-width:0.5" />
  <path
     d="m 766.665,66.305502 c -4.75,0.2045 -9.04,-0.3815 -12.865,-1.757 -3.83,-1.3755 -6.95,-3.521 -9.36,-6.437 -2.35,-2.9175 -3.68,-6.496 -3.985,-10.73435 l 16.835,-0.7243 c 0.35,2.38825 1.26,4.19715 2.735,5.42815 1.47,1.169 3.35,1.704 5.63,1.606 2.34,-0.1005 4.17,-0.703 5.48,-1.807 1.31,-1.1655 1.925,-2.7015 1.84,-4.60775 -0.07,-1.5993 -0.68,-2.8976 -1.835,-3.89555 -1.095,-1.00025 -2.455,-1.8043 -4.09,-2.4119 -1.57,-0.61015 -3.825,-1.2835 -6.76,-2.0196 -4.25,-1.1114 -7.725,-2.25565 -10.435,-3.4331 -2.705,-1.1775 -5.07,-2.9859 -7.09,-5.42525 -2.02,-2.4393 -3.12,-5.68855 -3.295,-9.74765 -0.26,-6.0272 1.725,-10.8262504 5.955,-14.3971504 4.23,-3.63241 9.86,-5.59980996 16.89,-5.90219996 7.155,-0.30769 12.995,1.16634996 17.52,4.42210996 4.525,3.19429 7.07,7.8290904 7.645,13.9044904 l -17.115,0.73605 c -0.21,-2.0857 -1.055,-3.68235 -2.52,-4.7899 -1.475,-1.169 -3.32,-1.7058 -5.54,-1.6103 -1.91,0.0823 -3.43,0.67135 -4.555,1.76725 -1.13,1.0344 -1.655,2.5049 -1.57,4.41145 0.09,2.09105 1.145,3.6784 3.17,4.76205 2.025,1.0837 5.165,2.21185 9.415,3.3845 4.255,1.23415 7.705,2.4413 10.35,3.6214 2.705,1.1775 5.07,2.95515 7.085,5.3329 2.02,2.3779 3.115,5.5041 3.28,9.37865 0.16,3.6902 -0.65,7.083 -2.43,10.179 -1.72,3.0935 -4.33,5.608 -7.83,7.546 -3.5,1.937 -7.685,3.011 -12.555,3.22 z"
     fill="#f35555"
     id="path4"
     style="display:inline;stroke-width:0.5" />
  <path
     d="M 70.25,19.750002 85.75,177 38.75,36.500002 Z"
     fill="#55a5f3"
     id="path28"
     style="display:inline;stroke-width:0.5" />
  <path
     d="M 33.75,47.750002 83,184.75 14.75,68.000002 Z"
     fill="#55a5f3"
     id="path30"
     style="display:inline;stroke-width:0.5" />
  <path
     d="M 12,80.000002 78.75,189.75 0,101.75 Z"
     fill="#55a5f3"
     id="path32"
     style="display:inline;stroke-width:0.5" />
  <path
     d="m 617.135,118.656 -16.93,30.964 -23.385,42.7735 -37.325,3.621 38.325,-73.5445 17.335,-31.262998 23.28,-42.0011 37.325,-3.621 z"
     fill="#214b88"
     id="path6"
     style="display:inline;stroke-width:0.5" />
  <path
     d="m 670.01,183.353 -52.875,-64.697 -16.93,30.964 30.49,37.547 z"
     fill="#132846"
     id="path8"
     style="display:inline;stroke-width:0.5" />
  <path
     d="M 526,58.173502 577.82,122.47 595.155,91.207002 565.315,54.359502 Z"
     fill="#132846"
     id="path10"
     style="display:inline;stroke-width:0.5" />
  <path
     d="m 545.27,121.7495 c -0.325,4.9895 -0.945,9.4585 -1.87,13.4075 l -135.8155,-8.786 -0.08,-0.006 c -0.159,-3.409 -0.1215,-6.914 0.1115,-10.5145 0.2905,-4.497 0.858,-8.803 1.702,-12.917 l 0.08,0.005 135.952,8.795 c 0.17,3.2485 0.14,6.587 -0.08,10.0155 z"
     fill="#214b88"
     id="path12"
     style="display:inline;stroke-width:0.5" />
  <path
     d="m 451.405,152.7545 c -5.788,-6.0525 -8.775,-14.0955 -8.961,-24.1285 l -34.8595,-2.255 c 0.4645,9.9765 2.605,19.1335 6.422,27.4715 5.2885,11.1985 12.978,20.13 23.0685,26.7955 10.268,6.5095 22.055,10.195 35.36,11.0555 16.4655,1.0655 30.63,-2.2775 42.485,-10.028 11.87,-7.917 20.23,-18.399 25.085,-31.4465 l -37.675,-2.437 c -6.207,10.788 -15.7985,15.763 -28.771,14.9235 -8.9815,-0.581 -16.3655,-3.898 -22.154,-9.951 z"
     fill="#132846"
     id="path14"
     style="display:inline;stroke-width:0.5" />
  <path
     d="m 543.485,135.162 c 0.92,-3.9485 1.545,-8.4175 1.865,-13.407 0.875,-13.472 -1.265,-25.551498 -6.42,-36.240498 -4.98,-10.844 -12.525,-19.432 -22.635,-25.765 -9.945,-6.3215 -21.489,-9.9076 -34.6285,-10.75765 -13.638,-0.88225 -25.8845,1.24815 -36.739,6.39165 -10.855,5.1435 -19.542,12.932 -26.063,23.366 -4.47,7.154 -7.6255,15.217 -9.4665,24.189498 l 34.8125,2.252 c 1.9335,-9.227998 5.9775,-16.231498 12.1315,-21.010498 6.332,-4.935 13.8225,-7.1225 22.471,-6.563 9.1475,0.5915 16.704,3.836 22.667,9.7335 5.98,5.7315 8.76,13.092498 8.345,22.084498 l 35.525,2.2985 c 0.17,3.2485 0.14,6.587 -0.08,10.0155 -0.325,4.9895 -0.945,9.4585 -1.87,13.4075 z"
     fill="#132846"
     id="path16"
     style="display:inline;stroke-width:0.5" />
  <path
     d="m 367.346,7.7440016 35.3945,-2.73785 14.2675,184.4488484 -35.3945,2.738 -1.571,-20.313 -3.282,-42.427 -0.974,-12.591 -3.378,-43.670998 z"
     fill="#214b88"
     id="path18"
     style="display:inline;stroke-width:0.5" />
  <path
     d="m 273.241,93.256502 c -4.648,11.224998 -6.4325,23.816998 -5.3525,37.774998 1.0925,14.1245 4.8045,26.4585 11.1365,37.0015 6.485,10.364 14.7785,18.164 24.879,23.401 10.1005,5.2365 20.967,7.405 32.5985,6.505 10.303,-0.797 19.198,-3.5745 26.687,-8.333 7.443,-4.7285 13.06,-10.6375 16.853,-17.726 l -3.282,-42.427 c -0.182,5.9015 -1.3305,11.232 -3.4465,15.991 -2.861,6.239 -6.9875,11.2385 -12.3805,14.9995 -5.405,3.594 -11.3485,5.642 -17.829,6.143 -6.3145,0.4885 -12.4255,-0.71 -18.332,-3.597 -5.741,-2.899 -10.5935,-7.288 -14.559,-13.166 -3.812,-6.0575 -6.039,-13.2405 -6.6815,-21.549 -0.643,-8.3085 0.466,-15.5825 3.327,-21.8215 3.014,-6.418 7.1405,-11.418498 12.38,-14.999498 5.2395,-3.5815 11.0995,-5.623 17.58,-6.124 6.4805,-0.5015 12.6745,0.691 18.581,3.5775 5.894,2.72 10.7405,7.026 14.5395,12.916998 2.8135,4.254 4.7625,9.2665 5.847,15.038 l -3.378,-43.670998 c -5.308,-6.058 -12.1575,-10.6745 -20.549,-13.849 -8.4505,-3.358 -17.163,-4.6905 -26.136,-3.996 -11.798,0.9125 -22.2915,4.6495 -31.479,11.211 -9.188,6.5615 -16.1895,15.461 -21.0035,26.6995 z"
     fill="#132846"
     id="path20"
     style="display:inline;stroke-width:0.5" />
  <path
     d="m 157.403,177.213 -34.903,-2.6015 10.295,-138.117048 34.903,2.60165 z"
     fill="#214b88"
     id="path22"
     style="display:inline;stroke-width:0.5" />
  <path
     d="m 248.28,58.890502 c -9.3585,-11.22645 -22.264,-17.453 -38.7185,-18.6795 -8.643,-0.64425 -16.751,0.50625 -24.324,3.4515 -7.395,2.7915 -13.642,7.0055 -18.7415,12.642 l 1.2825,-17.20245 -0.0805,-0.006 -10.295,138.116898 0.08,0.006 5.6865,-76.2885 c 0.818,-10.969498 4.186,-19.158498 10.104,-24.566998 6.097,-5.562 13.9655,-7.984 23.6055,-7.2655 9.474,0.7065 16.73,4.2555 21.769,10.648 5.051,6.226 7.168,14.8235 6.35,25.792998 l -5.6865,76.2885 34.9035,2.6015 6.0395,-81.025 C 261.642,84.788952 257.6505,69.951452 248.28,58.890452 Z"
     fill="#132846"
     id="path24"
     style="display:inline;stroke-width:0.5" />
  <path
     d="M 127.932,184.586 115.917,10.500052 81,12.909952 93.0155,186.996 Z"
     fill="#132846"
     id="path26"
     style="display:inline;stroke-width:0.5" />
</svg>
